SplineFontDB: 1.0
FontName: LeBeBook
FullName: LeBe Book
FamilyName: LeBe
Weight: Book
Copyright: Created by Raph Levien with PfaEdit 1.0 (http://pfaedit.sf.net)
Version: 001.000
ItalicAngle: 0
UnderlinePosition: -100
UnderlineWidth: 50
Ascent: 800
Descent: 310
NeedsXUIDChange: 1
ScriptLang: 1
 1 latn 1 dflt 
Encoding: adobestandard
DisplaySize: -48
AntiAlias: 1
FitToEm: 1
WinInfo: 64 16 4
Grid
0 740 m 25
 1000 740 l 29
EndSplineSet
BeginChars: 256 120
StartChar: exclam
Encoding: 33 33 32767
Width: 235
Flags: W
Fore
122 95 m 24
 96.083 95.54 75.8626 73.9082 75 48 c 24
 74.1719 23.1396 92.1767 1.60316 117 0 c 24
 143.471 -1.70996 166.62 18.5097 168 45 c 24
 169.378 71.4609 148.491 94.4483 122 95 c 24
114 512 m 24
 72.8379 512.263 66.502 459.16 66 418 c 16
 65 336 74 284 87 209 c 8
 89.0391 197.237 99.0869 190.771 111 190 c 24
 122.347 189.266 133.914 193.823 136 205 c 20
 150 280 162 331 160 419 c 8
 159.081 459.454 154.464 511.741 114 512 c 24
EndSplineSet
EndChar
StartChar: ampersand
Encoding: 38 38 32767
Width: 884
Flags: W
VStem: 40 78<203 223>
Fore
260 374 m 8
 249.737 383.708 236.813 383.948 224 378 c 24
 156.695 346.757 117.202 294.198 118 220 c 16
 119 127 193.129 66.1533 284 71 c 0
 359 75 396 108 444 156 c 8
 453.943 165.943 450.271 180.628 442 192 c 16
 410 236 399.118 252.449 366 286 c 24
 328.255 324.238 297 339 260 374 c 8
262 660 m 8
 221.283 660 204.345 616.484 200 576 c 24
 195.529 534.344 209.354 501.556 244 478 c 24
 258.205 468.342 273.319 467.082 288 476 c 24
 327.669 500.098 346.123 538.302 338 584 c 24
 330.664 625.271 306 660 262 660 c 8
254 692 m 16
 334 694 408 646.623 408 570 c 16
 408 514 385 465 328 442 c 8
 317.247 437.661 329.704 422.102 338 414 c 16
 423 331 440 330 504 270 c 8
 513.419 261.17 526.521 273.475 534 284 c 16
 588 360 603 369 642 438 c 8
 647.808 448.275 644.667 458.26 638 468 c 24
 627.943 482.691 612.082 479.107 598 490 c 24
 590.362 495.908 580.107 498.386 581 508 c 28
 582.472 523.846 598.273 534.437 614 532 c 16
 685 521 714 518 770 522 c 8
 781.566 522.826 792 513.596 792 502 c 152
 792 490.404 781.596 482 770 482 c 16
 755 482 745.515 484.279 732 478 c 24
 707.485 466.61 696.463 452.837 682 430 c 16
 625 340 615 333 550 246 c 8
 542.53 236.002 543.431 224.611 550 214 c 16
 576 172 618 116 652 90 c 8
 683.411 65.9805 709 58 746 52 c 8
 777.455 46.8994 802 82 822 82 c 8
 834.577 82 842 70 838 54 c 0
 836.06 46.2388 789.974 4.8457 750 0 c 16
 684 -8 618 -6 602 0 c 0
 586.082 5.96875 560.055 18.3779 547 42 c 16
 526 80 521 85 496 126 c 8
 488.688 137.992 469.768 137.093 460 127 c 16
 400 65 350 -5 231 -5 c 8
 120.58 -5 40 93.5801 40 204 c 16
 40 317 108 366 192 404 c 8
 200.558 407.871 196.924 421.653 190 428 c 16
 154 461 122 502 118 560 c 0
 112.977 632.827 180.108 690.152 254 692 c 16
EndSplineSet
MinimumDistance: x2,-1 
EndChar
StartChar: quoteright
Encoding: 39 8217 32767
Width: 238
Flags: W
Fore
92 725 m 4
 76 725 54 702.971 54 680 c 20
 54 654 66.3926 641.926 87 634 c 20
 113 624 116.345 613.951 116 595 c 20
 115 540 94 536 71 521 c 12
 65.4082 517.354 64.6035 509.024 69 504 c 20
 76 496 81.0918 494.798 90 495 c 20
 134 496 185 573 186 618 c 12
 187.234 673.532 153.008 725 92 725 c 4
EndSplineSet
EndChar
StartChar: comma
Encoding: 44 44 32767
Width: 300
Flags: W
Fore
136 141 m 12
 109.475 141 84.1963 122.514 85 96 c 20
 86 63 125.662 49.9658 145 36 c 4
 163 23 173 -1.39844 173 -29 c 20
 173 -89 125 -124 66 -155 c 12
 56.4756 -160.004 45.1064 -163.278 46 -174 c 20
 47 -186 64.9287 -184.335 78 -184 c 20
 156 -182 246.475 -98.167 250 0 c 28
 252.538 70.6689 208 141 136 141 c 12
EndSplineSet
EndChar
StartChar: hyphen
Encoding: 45 45 32767
Width: 469
Flags: W
Fore
93 238 m 12
 77.2598 237.848 68.3555 223.563 66 208 c 28
 63.4932 191.437 67.3096 170.438 84 169 c 20
 142 164 249 164 352 166 c 12
 376.726 166.48 398.884 180.467 402 205 c 28
 404.418 224.036 391.186 244.376 372 244 c 20
 270 242 196 239 93 238 c 12
EndSplineSet
EndChar
StartChar: period
Encoding: 46 46 32767
Width: 190
Flags: W
HStem: 6 111<88 104>
Fore
95.417 117 m 12
 68.9893 117 48.417 100 44.417 75 c 4
 42.8955 65.4932 37.457 48.9199 41.417 41 c 4
 52.417 19 70.5908 6 95.417 6 c 12
 128.869 6 152.683 35.625 150.417 69 c 28
 148.439 98.1328 125.417 117 95.417 117 c 12
EndSplineSet
EndChar
StartChar: A
Encoding: 65 65 32767
Width: 825
Flags: W
HStem: 270 68<325 506>
Fore
363 668 m 24
 392.054 700.102 423.975 746.675 442 746 c 8
 451.981 745.626 454.613 735.397 458 726 c 16
 554.799 457.383 567 396 660 102 c 8
 674.166 57.2188 728.962 39.2607 758 32 c 8
 770.107 28.9727 767.672 -0.408203 758 0 c 0
 643.051 4.83984 606.578 6.05078 488 0 c 0
 477.125 -0.554688 478.657 33.5234 492 34 c 16
 548 36 567 65 559 109 c 0
 547.462 172.458 542.565 203.601 527 252 c 0
 523.518 262.834 518 270 506 270 c 0
 445.967 270 339 269 306 270 c 0
 292.968 270.395 283.753 257.036 278 243 c 16
 253 182 257 181 242 108 c 8
 237.222 84.7441 241.07 66.6045 257 49 c 24
 272.314 32.0762 287.801 35.0498 312 29 c 8
 322.998 26.25 321.337 0 310 0 c 16
 255.551 0 239.24 0 194 0 c 24
 149.54 0 155.02 0 80 0 c 8
 71.0303 0 71.3203 20.7354 80 23 c 16
 107.829 30.2607 113.559 32.2022 130 46 c 24
 148.895 61.8564 156.988 75.0391 166 98 c 16
 244.506 298.031 271 418 342 642 c 8
 345.938 654.425 354.254 658.336 363 668 c 24
313 367 m 16
 309.371 354.899 314.442 338.175 327 338 c 16
 399 337 409 333 489 336 c 0
 498.972 336.374 493.812 357.294 490 370 c 16
 472 430 450 496 404 608 c 8
 401.629 613.772 390.409 613.756 388 608 c 16
 344.442 503.941 341.276 461.287 313 367 c 16
EndSplineSet
EndChar
StartChar: B
Encoding: 66 66 32767
Width: 675
Flags: W
HStem: -3.08887 29.5674<340 372>
VStem: 146 90.959<126 353> 469.259 113.12<555 577> 510 109.749<189 217.641>
Fore
236.959 351.698 m 16
 234.515 234.377 232 188 238.857 86.5176 c 0
 240.41 63.5342 304.754 26.4785 356.139 26.4785 c 16
 451.079 26.4785 505.005 129.202 510 196 c 0
 510.307 305.059 432.446 375.368 369.269 383.009 c 0
 328 388 302 388 263.219 381.999 c 8
 247.765 379.607 237.285 367.332 236.959 351.698 c 16
269.278 705.198 m 8
 247.663 694.392 249.804 670.774 249.079 646.619 c 16
 246 544 244.019 565.304 244.019 457.759 c 8
 244.019 440.593 250.161 421.915 267.259 420.379 c 16
 316 416 352 418 386.438 424.419 c 0
 428.329 432.227 469.259 493.099 469.259 575.919 c 0
 469.259 655.328 388.439 704.774 341.999 707.219 c 8
 313.666 708.71 293.721 717.419 269.278 705.198 c 8
63.2383 735.499 m 16
 96.0713 735.946 149.492 734.226 204.639 734.499 c 24
 273.975 734.843 308.91 737.519 382.398 737.519 c 0
 463.198 737.519 512.649 709.541 541.979 672.879 c 0
 563.679 645.753 582.379 590.726 582.379 563.839 c 8
 582.379 498.646 561.162 454.461 507.639 414.318 c 0
 499.559 408.259 500.568 400.179 509.659 394.119 c 0
 579.141 347.798 620.566 300.29 619.749 189.079 c 0
 618.738 51.7188 510.162 -3.08887 368.398 -3.08887 c 8
 296.402 -3.08887 255.859 1.91699 183.863 1.9668 c 16
 136 2 116 0 49.0986 -0.78125 c 8
 34.4443 -0.952148 38.6309 34.5068 53.1387 36.5791 c 16
 87.3584 41.4678 91.3154 51.3623 109.698 68.8984 c 24
 128.793 87.1133 145.59 99.9883 146 126 c 0
 150 380 150.099 430.479 148.079 644.599 c 8
 147.863 667.487 128.972 676.639 109.719 689.019 c 24
 93.1426 699.677 82.0527 697.202 61.2188 703.198 c 8
 49.0889 706.689 50.6172 735.327 63.2383 735.499 c 16
EndSplineSet
EndChar
StartChar: C
Encoding: 67 67 32767
Width: 750
Flags: W
HStem: -6 40<410 444> 724.999 29.001<394 427>
VStem: 11 108.001<345 395>
Fore
414 754 m 0
 172 754 12 608 11 365 c 128
 10 122 175.928 -6 425 -6 c 0
 524 -6 584 10 660 42 c 8
 669.778 46.1169 673.149 54.8438 676 64 c 0
 687.416 100.659 696 134 706 175 c 0
 709.349 188.731 705.497 199.154 694 203.428 c 0
 683.367 207.379 673.419 195.608 670 183 c 0
 654 124 604 33 416 34 c 0
 247.489 34.8975 121 237 119.001 355 c 0
 115.068 586.975 253 728 418 724.999 c 0
 477.559 723.917 548.357 707.862 594.001 672.001 c 0
 622 650.001 638.625 615.874 654 580 c 0
 664.747 554.927 688.438 578.146 688 585.999 c 8
 685.851 624.581 689 643 683.999 684.999 c 8
 682.336 698.968 671.227 705.211 658 710 c 16
 600 731 527.004 754 414 754 c 0
EndSplineSet
MinimumDistance: x9,-1 
EndChar
StartChar: D
Encoding: 68 68 32767
Width: 886
Flags: W
HStem: 687 39<44.7617 54.1868 54.2498 64.4943 324 390>
VStem: 688 122<331 365>
Fore
268 682 m 8
 248.979 676.928 240.255 659.685 240 640 c 16
 237 408 234.047 321.734 246.226 135 c 0
 252.226 43 304.279 11.6091 411.226 15 c 0
 632 22 688 175.988 688 348 c 0
 688 500 532 688 366 686 c 8
 327.751 685.539 298 690 268 682 c 8
44 724 m 0
 121.006 724 121.774 722 190 720 c 0
 244.333 718.407 289.625 725.509 354 726 c 0
 616 728 811.718 586.521 810 358 c 16
 808 92 648 -20 412 -20 c 0
 353.696 -20 234.01 6 186 6 c 0
 148 6 94 0 38 0 c 0
 18 0 14 38 40 42 c 0
 59.418 44.9874 114.895 33.4605 120 108 c 0
 130 254 132 446 130 596 c 0
 129.56 629.013 118.803 643.197 104 658 c 0
 92 670 76.7178 687.698 54.2256 687 c 0
 22 686 22 724 44 724 c 0
EndSplineSet
MinimumDistance: x9,-1 
EndChar
StartChar: E
Encoding: 69 69 32767
Width: 694
Flags: W
Fore
84 750 m 0
 67.8857 750.579 67 718 80 716 c 8
 114.451 710.7 146.542 692.826 148 658 c 16
 157 443 154 316 142 108 c 8
 139.552 65.5693 99 48 62 34 c 8
 47.6846 28.583 44.0205 -5 57.6221 -5 c 0
 102.622 -5 136.894 -0.975179 187.622 0 c 24
 315.519 2.45898 387.702 -1.11831e-05 515.622 0 c 24
 541.51 0 548 -6 582 0 c 8
 592.917 1.92676 599.258 17.8418 600 22 c 0
 605 50 634 84 642 120 c 8
 645.12 134.04 611.385 138.77 606 128 c 0
 586 88 552.209 44.2295 497.622 38 c 16
 410 28 396.622 30 311.622 37 c 8
 259.023 41.332 244.578 99.7774 243.622 154 c 0
 242 246 243 250 246 332 c 8
 246.929 357.378 264.642 381.371 290 380 c 16
 364 376 333 381 404 376 c 8
 442.197 373.311 447.903 321.768 458 294 c 0
 466 272 506 274 503.622 295 c 0
 499.978 327.183 499.5 348.034 499.622 382 c 28
 499.754 418.712 500 438 504.622 476 c 0
 505.306 481.624 500 490 488 490 c 0
 473.858 490 472.69 488.117 470 482 c 0
 459 457 445 426 404 422 c 0
 326.267 414.416 348 414 270 420 c 8
 253.649 421.258 252 441.602 252 458 c 16
 252 550.044 250.753 567.782 250 656 c 0
 249.886 669.376 266.827 699.073 290 700 c 16
 340 702 384.622 712 467.622 706 c 0
 534.566 701.16 507 675 538 622 c 8
 545.891 608.51 579.396 612.473 577.622 628 c 16
 573.622 663 569.271 694.024 566 730 c 0
 564 752 548.677 756.739 532 756 c 16
 329 747 251 744 84 750 c 0
EndSplineSet
EndChar
StartChar: F
Encoding: 70 70 32767
Width: 651
Flags: W
Fore
561.083 742 m 0
 408 740 335.984 739.397 192.083 741 c 24
 145.271 741.521 126 743 72.083 744 c 4
 53.5661 744.343 56 720 74 718 c 0
 103.833 714.685 153.522 677.806 154 632 c 16
 156 440 158 359 154 150 c 8
 153.394 118.31 144 99 128 73 c 8
 112.46 47.748 80 41 60 39 c 128
 40 37 36 0 61.083 0 c 8
 114.159 0 144.015 5.90493 197.083 5 c 24
 257.676 3.9668 292 -8 352.083 -6 c 0
 374.35 -5.2588 370 28 348 32 c 0
 290.42 42.469 260.77 50.7891 258.083 93 c 0
 251.083 203 251 241 247 336 c 8
 246.431 349.526 256.467 362.361 270 362 c 16
 345 360 354 363 428 356 c 8
 443.077 354.574 450.214 345.558 460 334 c 24
 468.343 324.146 466.806 314.721 474 304 c 24
 481.689 292.541 484.362 280.105 498 278 c 24
 510.43 276.082 526.883 281.454 526 294 c 16
 521.917 352 522.917 392 524 456 c 8
 524.136 464.001 522 471 510 471 c 0
 500 471 492.256 467.025 490 458 c 16
 484 434 469.981 404.198 448 402 c 0
 408 398 355 400 276 404 c 8
 262.218 404.698 252.15 416.201 252 430 c 16
 251 522 253 532 256 642 c 8
 256.708 667.966 274.027 692.388 300 692 c 16
 367 691 398 694 476 684 c 8
 516.119 678.856 525 653 542 604 c 8
 548.136 586.314 591.91 585.378 590 604 c 16
 586 643 588 688 588 712 c 8
 588 727.719 588.072 742.353 561.083 742 c 0
EndSplineSet
EndChar
StartChar: G
Encoding: 71 71 32767
Width: 859
Flags: MW
Fore
467.159 756 m 0
 234.141 756 48 590 50 354 c 0
 52.0686 109.908 248.154 -11 463.159 -11 c 16
 562.159 -11 641.159 10 748.159 44 c 8
 765.467 49.5 770.994 65.8672 772 84 c 24
 773.044 102.82 752 109.15 752 128 c 16
 752 208 750.159 187 752.159 266 c 8
 752.671 286.2 761.441 297.988 776 312 c 24
 786.56 322.162 795.458 326.183 810 328 c 16
 842 332 842 378 816 378 c 0
 760.855 378 610 375 540 380 c 8
 521.688 381.308 512.027 337.744 530 334 c 16
 578 324 649.159 304 650.159 284 c 0
 653.955 208.088 657 172 654 112 c 8
 650.462 41.2461 551.996 25.3334 494 26 c 0
 320 28 158 178 158.159 354 c 0
 158.323 535.025 242.008 716.932 470 715 c 0
 588 714 642.159 678 714.159 617 c 0
 721.789 610.536 721.605 593.028 729.159 579 c 16
 736.159 566 757.039 573.847 755.159 584 c 16
 750.159 611 756.542 645.654 749.159 680 c 0
 744 704 727.881 718.626 718 722 c 0
 636 750 552.159 756 467.159 756 c 0
EndSplineSet
MinimumDistance: x15,-1 
EndChar
StartChar: H
Encoding: 72 72 32767
Width: 976
Flags: HMW
Fore
110 756 m 8
 99.7402 756 100.971 760.485 84 752 c 0
 84 752 71.4388 722.112 82 720 c 0
 122 712 147.166 679.257 149 638 c 16
 157 458 158 332 152 102 c 8
 151.461 81.3408 140.559 70.052 125.083 56.3564 c 24
 104.349 38.0078 90.0859 37.7383 60 28 c 8
 48.2842 24.208 37.8165 -1.24092 54 -3 c 0
 100 -8 134.906 2.95002 186.729 3.44043 c 24
 242.898 3.97168 292.716 1.51562 330.697 -0.816406 c 8
 344.253 -1.64844 343.206 30.8301 330 34 c 16
 304.054 40.2275 297.92 46.7471 269 56 c 8
 250.06 62.0596 247.192 91.8027 247 102 c 0
 245 208 251 224 249 322 c 8
 248.598 341.732 260.264 361.905 280 362 c 16
 428.013 362.708 577 354 726.817 355.273 c 8
 741.38 355.397 750.323 340.56 750 326 c 16
 748 236 751.513 201.874 748 102 c 8
 747.024 74.2529 729.482 59.4189 706.104 44.4424 c 24
 692.002 35.4092 679.739 41.7236 664 36 c 16
 642 28 646.771 -2.86719 662 -3 c 16
 709.998 -3.41895 745.993 -1.19191 799.699 -1.37695 c 24
 845.725 -1.53516 877.695 -3.23145 917.694 -3.58105 c 8
 927.953 -3.6709 926.836 13.3781 921.921 22.3828 c 24
 914.602 35.791 897.625 28.0889 886 38 c 24
 870.812 50.9492 859.196 61.1709 858.43 81.1143 c 16
 850.28 293.193 856.08 440.044 862 660 c 8
 862.506 678.778 882.445 681.469 898 692 c 24
 910.998 700.801 913.729 707.748 934 710 c 0
 952 712 952 743 930 744 c 0
 887.288 745.941 856.775 745.074 810 747 c 24
 762.382 748.961 743.98 751.511 688 754 c 8
 677.546 754.465 674.515 740.359 676 730 c 24
 678.114 715.249 687.863 706.713 702 702 c 16
 732 692 744.634 695.887 746.025 664.026 c 0
 750.143 569.776 754.785 521.944 748 432 c 8
 747.087 419.9 738.133 410.175 726 410 c 16
 571.79 407.781 459.896 414.062 294 412 c 8
 269.709 411.698 251.286 433.718 252 458 c 20
 254 526 260 560 262 650 c 8
 262.423 669.037 275.7 677.426 290 690 c 24
 303.886 702.211 314.061 707.516 332 712 c 16
 348 716 362 748 337.225 747.155 c 0
 279.224 745.177 265.719 743.988 220 742 c 16
 174 740 140 756 110 756 c 8
EndSplineSet
EndChar
StartChar: I
Encoding: 73 73 32767
Width: 388
Flags: HMW
Fore
74 750 m 8
 61.5512 751.174 60.3456 722.532 72 718 c 16
 108 704 137.344 696.137 139.499 662 c 20
 152 464 146 334 140 124 c 8
 138.566 73.8271 98.0205 38.168 48 34 c 16
 24 32 23.9259 -2.46286 49.499 -2 c 0
 160 0 230 0 324 -2 c 0
 346.086 -2.46991 344 26 322 31 c 0
 263.33 44.3342 251.499 34 249.499 90 c 0
 242.281 292.118 248 410 250 632 c 8
 250.288 664.017 270 694 296 700 c 8
 310.971 703.455 323.914 702.936 332 716 c 24
 338.985 727.286 343.771 750 330.499 750 c 16
 262.499 750 180 740 74 750 c 8
EndSplineSet
EndChar
StartChar: J
Encoding: 74 74 32767
Width: 404
Flags: W
Fore
167 -45 m 0
 142 -88 116.896 -120.71 68 -122 c 24
 24.1338 -123.157 19.4395 -54.6289 -24.335 -57.7002 c 24
 -47.0791 -59.2959 -68.9306 -74.748 -67.1748 -97.4805 c 24
 -63.0713 -150.612 -7.24512 -173.97 46.0449 -173.98 c 16
 127.892 -173.996 236 -78 264 0 c 0
 271.76 21.6165 276.906 56.4207 277.485 75.9199 c 0
 283.754 286.989 271.365 412.66 283.604 648.28 c 8
 284.43 664.181 282.412 675.98 292.785 688.06 c 24
 310.617 708.826 334.528 699.917 358 714 c 16
 368 720 373.02 746.519 360.104 747.08 c 16
 289.725 750.14 191.805 744.02 93.8848 750.14 c 8
 81.1953 750.934 82.6133 723.422 93.8848 717.54 c 16
 116 706 137.615 713.651 158.145 697.24 c 24
 171.095 686.888 178.101 677.034 179.564 660.52 c 16
 200.985 418.78 185.939 298.8 189 54 c 8
 189.494 14.4512 177.757 -26.499 167 -45 c 0
EndSplineSet
EndChar
StartChar: K
Encoding: 75 75 32767
Width: 812
Flags: HMW
Fore
82 754 m 0
 57.9539 752.664 61.5576 712.609 78 712 c 16
 132 710 143.36 673.792 143.784 634 c 16
 145.784 446 151.784 290 141.784 102 c 8
 139.639 61.6719 95.6289 52.3428 56 44 c 0
 37 40 40.5049 -5 56.7842 -5 c 0
 94.7842 -5 137.887 -0.975171 189.784 0 c 24
 238.22 0.910156 278 2 314 0 c 0
 333.667 -1.09277 327.553 27.9912 316 30 c 16
 270 38 244.841 68.498 245.784 110 c 16
 247.784 198 246 254 244 334 c 0
 243.298 362.062 270.295 370.335 284 358 c 0
 384 268 384 256 494 142 c 8
 512.918 122.395 522 104 522 78 c 0
 522 48 516 38 497 37 c 0
 475.19 35.8521 475.669 -4.3876 499.784 -4 c 0
 562 -3 574.207 5.09217 622 5 c 24
 672.461 4.90234 712.882 -5 751 -5 c 0
 773 -5 777.47 32.9222 749 36 c 0
 712 40 684 68 658 94 c 0
 516.826 235.174 480 278 370 388 c 8
 355.283 402.717 343.787 424.796 358 440 c 16
 444 532 463.813 580.433 556 640 c 24
 597.253 666.655 623.07 671.267 674 684 c 0
 698 690 700.059 733.851 672 733 c 0
 606 731 531.995 731.933 453.784 738 c 0
 428 740 423.504 701.999 452 696 c 0
 490 688 478.518 653.895 464 634 c 16
 410 560 380 516 304 432 c 8
 288.257 414.6 246 420 246 448 c 0
 246 530.098 244 508 248 612 c 0
 250.312 672.089 280 694 322 696 c 8
 341.547 696.931 350 746 317.784 746 c 0
 273.739 746 245.97 738.455 200 740 c 24
 153.684 741.557 118 756 82 754 c 0
EndSplineSet
EndChar
StartChar: L
Encoding: 76 76 32767
Width: 691
Flags: W
Fore
57.3936 733 m 8
 48.958 733.134 41.8364 729.076 39.3936 721 c 24
 35.1113 706.843 39.8496 690.307 54 686 c 16
 100 672 128.056 662.012 128.394 624 c 0
 130.394 399 134 322 130 112 c 8
 129.191 69.5352 88 48 54 34 c 8
 42.543 29.2822 36 20 34.3936 9 c 8
 33.3105 1.58691 37.3984 -6.3125 46.3936 -6 c 0
 104 -4 128.677 0.356585 181.394 2 c 24
 305.59 5.87207 347 0 500 3 c 8
 532.033 3.62793 563 -2 582 -2 c 8
 604.62 -2 614.847 18.541 622 40 c 16
 630.032 64.0957 640.69 83.5234 644 114 c 0
 645.223 125.262 647 137 639 147 c 8
 630.47 157.663 612.681 156.541 604 146 c 16
 576 112 546.553 62.9844 510 60 c 0
 412 52 336 54 292 56 c 8
 261.126 57.4033 234.622 86.9863 234 110 c 0
 228 332 227.495 436.261 238.394 633 c 0
 240 662 268 674 306 682 c 8
 319.681 684.88 335 688 337 700 c 8
 338.922 711.533 338.651 721.857 329.394 729 c 24
 324.145 733.05 319.024 729 312.394 729 c 16
 276.394 729 257.492 729.486 222.394 730 c 24
 158.04 730.942 120.394 732 57.3936 733 c 8
EndSplineSet
EndChar
StartChar: M
Encoding: 77 77 32767
Width: 1053
Flags: HMW
Fore
196 555 m 0
 184 363 170 291 156 94 c 8
 152.908 50.4961 107 37 65 29 c 8
 53.8896 26.8838 58.0049 -0.261719 65 0 c 0
 172 4 222 7 293 1 c 8
 306.739 -0.161133 301.576 33.5908 288 36 c 16
 226 47 223.639 52.4932 223 84 c 16
 220 232 224 216 236 392 c 8
 237.298 411.034 246 433 268 429 c 8
 275.674 427.604 280.206 423.815 284 417 c 16
 338 320 406 176 476 26 c 0
 488.488 -0.75925 519.351 8.65234 528 27 c 16
 627 237 657.597 267.215 753 453 c 0
 772 490 793.185 473.051 801 456 c 16
 812 432 809 292 810 111 c 8
 810.258 64.2969 762 43 720 32 c 8
 707.833 28.8135 707.005 -0.304907 716 0 c 0
 834 4 858 4 975 0 c 0
 981 -0.205078 989.537 34.5273 975 39 c 16
 923 55 902.724 74.8867 900 117 c 16
 887 318 890 451 892 656 c 8
 892.25 681.647 898 680 939 702 c 8
 953.039 709.533 939.93 740.301 924 740 c 16
 871 739 877 732 814 736 c 8
 800.239 736.874 794.885 723.47 789 711 c 16
 780 618 l 0
 692 423 658.635 391.23 552 177 c 8
 545.223 163.384 520.141 163.57 513 177 c 16
 404 382 358 505 248 726 c 8
 245.774 730.471 244.991 736.166 240 736 c 16
 180 734 170.46 736 126 736 c 16
 118 736 108.041 699.973 123 690 c 16
 145.633 674.911 168 651 183 624 c 0
 192.342 607.186 197.315 576.05 196 555 c 0
EndSplineSet
EndChar
StartChar: N
Encoding: 78 78 32767
Width: 954
Flags: W
HStem: 732 20G<216.954 244.5>
VStem: 748.155 49.845<15 645> 748.155 53<644 656>
Fore
74.1553 754 m 0
 50.9854 754.581 52.2051 714.732 69 711 c 0
 96 705 111 690 153 666 c 8
 169.411 656.622 170.422 639.893 171 621 c 16
 177 425 171.155 329 159.155 135 c 8
 155.984 83.7363 130.653 45.8503 69 39 c 0
 42 36 36 0 61.1553 0 c 1
 165.635 -0.424198 216 2 308.155 0 c 1
 332.792 -3.20807 319.646 32.5889 306 36 c 16
 246 51 222 88.5586 222 141 c 21
 220.646 305.741 229.926 361.178 234 519 c 5
 234 562 265.606 579.566 288 555 c 0
 422 408 552 255 762 0 c 8
 771.669 -11.7412 798 -18 798 15 c 0
 798 277.008 802.351 439.966 801.155 656 c 0
 801 684 825 706 867 710 c 8
 881.407 711.372 890.056 712.528 903 719 c 16
 911 723 927 756 903.155 754 c 0
 869.215 751.153 831 742 798 742 c 8
 756.009 742 740.674 745.721 691 754 c 0
 661 759 658 720 688 714 c 0
 731.323 705.335 742.012 711.987 748.155 644 c 1
 750 498 756.811 385.945 753 264 c 0
 752 232 721.369 221.411 699 246 c 0
 568 390 468 494 270 714 c 8
 255.223 730.419 261 752 228 752 c 0
 205.909 752 167.439 747.865 147.155 750 c 0
 109.155 754 114 753 74.1553 754 c 0
EndSplineSet
EndChar
StartChar: O
Encoding: 79 79 32767
Width: 876
Flags: W
HStem: -7 40<454 477> 729 27<431 457>
VStem: 720 111<376 410>
Fore
300 678 m 0
 330 705 378 729 441 729 c 0
 600.255 729 720 526.682 720 390 c 0
 720 273 724 233 669 144 c 0
 636.714 91.7558 552.18 31.7258 477 33 c 0
 300 36 153 198 153 387 c 0
 153 572.874 235.466 619.919 300 678 c 0
436 756 m 0
 345.384 756 263 725 199 673 c 0
 106.144 597.554 44.5527 494.936 48 363 c 8
 53.6035 148.556 240.482 -7 455 -7 c 16
 522 -7 586.358 21.418 641 56 c 0
 755.654 128.563 831 254.488 831 394 c 0
 831 504 778.252 565.261 759 597 c 0
 722 658 609 756 436 756 c 0
EndSplineSet
MinimumDistance: x11,-1 
EndChar
StartChar: P
Encoding: 80 80 32767
Width: 659
Flags: W
VStem: 141 90<94 261.458> 501 118<510 528>
Fore
273 -1 m 1
 245 -1 270.5 2 191 2 c 8
 153.542 2 132.458 -1.01886 95 -1 c 24
 82.9033 -0.994141 76.0967 0 64 0 c 16
 51 0 48 24 69 33 c 8
 81.0234 38.1533 89.2744 35.9697 102 39 c 16
 123 44 141 53 141 105 c 0
 141 325.009 150 420 141 630 c 8
 139.364 668.165 126 680 78 705 c 8
 65.5 711.511 72.9795 741.438 87 740 c 16
 126 736 142.337 731 178 731 c 16
 250 731 303 743 372 741 c 8
 499.658 737.3 619 660 619 526 c 0
 619 403 513 300 375 300 c 8
 363.609 300 351.883 306.61 352 318 c 24
 352.16 333.6 368.519 340.083 384 342 c 16
 489 355 501 438.273 501 522 c 16
 501 602 444 714 360 711 c 0
 326.729 709.812 318 711 291 708 c 8
 262.995 704.889 243.235 682.177 243 654 c 16
 241 415 234 309 231 102 c 0
 230.42 62.0042 256.91 46.5337 285 36 c 0
 309 27 300 -1 273 -1 c 1
EndSplineSet
MinimumDistance: x12,-1 
EndChar
StartChar: Q
Encoding: 81 81 32767
Width: 876
Flags: W
HStem: -366 57<1409 1459>
VStem: 50 100<355 403> 732 104<352 375>
Fore
424 716 m 8
 609.306 720.728 732 532 732 354 c 0
 732 160 632 33 468 33 c 0
 280 33 150 199.284 150 384 c 16
 150 582 228 711 424 716 c 8
452 756 m 0
 195.005 759.411 48.7841 609.1 50 372 c 0
 51 177 177 42 381 0 c 8
 403.919 -4.71875 409.604 -22.9082 429 -36 c 16
 549 -117 730.831 -196.918 849 -240 c 0
 1014.9 -302.794 1254.38 -368.361 1422 -366 c 0
 1635 -363 1762 -320 1834 -228 c 0
 1840.97 -219.09 1844.94 -216.819 1840 -202 c 0
 1836 -190 1822.98 -192.527 1808 -204 c 0
 1714 -276 1702 -307 1452 -309 c 0
 1156.01 -311.368 786 -156 624 0 c 8
 615.405 8.27637 620.433 22.8711 630 30 c 16
 732 106 838 228.014 836 372 c 0
 833 588 678 753 452 756 c 0
EndSplineSet
MinimumDistance: x16,-1 
EndChar
StartChar: R
Encoding: 82 82 32767
Width: 761
Flags: HMW
Fore
246 332 m 20
 244 232 242 168 242 78 c 12
 242 51.249 275 33 291 30 c 12
 303.272 27.6992 302.486 -2 290 -2 c 20
 252 -2 236.606 -0.39003 202.458 0 c 28
 155.271 0.539062 131.458 0 81.458 0 c 4
 62 0 68 26 85 28 c 4
 111.824 31.1558 121.575 49.2295 134 58 c 4
 146.042 66.5 157.495 99.0039 158 130 c 4
 161 314 170 445.99 170 652 c 4
 170 663.5 151.792 678.865 135 690 c 28
 121.532 698.932 118.5 695 96 704 c 12
 86.5576 707.777 87.8301 730 98 730 c 20
 141 730 163 722 216.5 722 c 4
 296.6 722 331.765 727 405.5 727 c 20
 473.5 727 578 657.914 578 556 c 4
 578 458.5 530 416 458 378 c 4
 442.784 369.97 454.371 359.503 460 348 c 4
 506 254 562 144 654.458 40 c 12
 676.442 15.2715 697 -8 723 -10 c 12
 735.468 -10.959 733.466 -42.9844 721 -42 c 20
 683 -39 634 -32 596 -10 c 4
 581.289 -1.483 562.515 7.4707 548.458 26 c 20
 460.458 142 416 226 350 362 c 5
 326 363.5 297.542 366.5 268 366 c 12
 252.208 365.732 246.315 347.791 246 332 c 20
260 636 m 20
 256 612 254 546 254 456 c 12
 254 430.071 252.133 395.784 278 394 c 20
 307 392 310.5 390 344.5 391 c 12
 425.171 393.373 484 470 486 542 c 12
 488.703 639.312 420.542 695 288 694 c 12
 262.883 693.811 264.129 660.776 260 636 c 20
EndSplineSet
EndChar
StartChar: S
Encoding: 83 83 32767
Width: 570
Flags: W
HStem: -11 35<256 290>
VStem: 126 104<560 622> 418 94<158 198>
Fore
334 747 m 12
 224.916 747 126 669.084 126 560 c 20
 126 495 147 438 207 394 c 4
 284.738 336.992 291.473 325.656 368 270 c 4
 390 254 418 203 418 158 c 12
 418 81.2861 363 24 274 24 c 12
 239.565 24 210 26 188 44 c 4
 158.866 67.8368 131 134 114 174 c 12
 109.383 184.863 87.7324 181.198 84 170 c 20
 80 158 82 112 88 66 c 12
 90.0156 50.5459 94.2959 37.166 109 32 c 20
 183 6 212.478 -11 282 -11 c 20
 406 -11 512 76.7979 512 198 c 20
 512 271 485 325 436 360 c 4
 368.735 408.046 350 434 282 480 c 12
 233.15 513.045 230 564 230 622 c 12
 230 680.298 283.737 718.975 342 721 c 28
 413.721 723.493 479 666 488 609 c 12
 490.14 595.451 526 596 522 618 c 4
 516.029 650.838 524.673 670.955 520 706 c 4
 518 721 490.494 722.181 470 728 c 28
 418.481 742.628 396 747 334 747 c 12
EndSplineSet
MinimumDistance: x12,-1 
EndChar
StartChar: T
Encoding: 84 84 32767
Width: 830
Flags: W
VStem: 361 102<243.78 665>
Fore
785 701 m 16
 781 652 776 645 777 613 c 8
 777.431 599.207 766.693 585.288 753 587 c 16
 737 589 737.293 602.223 735 615 c 16
 728 654 716.671 682.688 683 684 c 16
 606 687 502 682 481 682 c 8
 468.345 682 462.847 667.654 463 655 c 16
 466 407 460 176 468 88 c 8
 471.876 45.3643 541 41 563 33 c 8
 577.257 27.8154 572 -3 551 -4 c 8
 513.892 -5.7666 493.137 2.00535 456 3 c 24
 397.51 4.56641 364.486 1.73149 306 0 c 24
 286.104 -0.588867 271 -8 255 -2 c 8
 241.728 2.97754 245.99 31.8447 260 34 c 16
 286 38 354 46 356 104 c 0
 363.176 312.117 366 434 361 663 c 8
 360.741 674.858 355.296 685.191 340 685 c 0
 260 684 237 684 162 680 c 0
 141.006 678.88 126 656 112 621 c 8
 106.914 608.285 72.834 611.858 79 633 c 0
 86 657 92 699 102 727 c 8
 105.352 736.386 114.034 740 124 740 c 16
 142 740 148.01 731.066 164 731 c 16
 405 730 507 723 755 730 c 8
 771.267 730.459 786.324 717.219 785 701 c 16
EndSplineSet
MinimumDistance: x6,-1 
EndChar
StartChar: U
Encoding: 85 85 32767
Width: 1000
Flags: W
Fore
77.3105 736.688 m 8
 65.3721 736.584 68.3271 710.642 79.3877 706.145 c 16
 102.028 696.94 117.939 691.684 138.365 688.822 c 8
 161.84 685.533 178.738 667.71 179.434 644.016 c 16
 184.785 461.694 177.634 446.148 179.983 245.763 c 0
 180.33 216.157 195.251 118.265 255.755 60.791 c 0
 304.499 14.4873 395.863 -12.0869 516.338 -7.89453 c 0
 657 -3 802.826 75.8242 820.48 223.916 c 16
 828 287 833 340 835.076 429.149 c 8
 837.164 518.802 831.654 557.191 845.809 658.84 c 8
 850.786 694.584 897.287 698.241 925.421 706.006 c 8
 937.947 709.463 938.168 738.653 925.19 739.326 c 16
 863.12 742.544 772.18 739.976 696.95 743.078 c 8
 683.158 743.646 688.258 713.324 700.956 707.912 c 16
 731.029 695.094 749.45 698.765 766.213 675.905 c 24
 775.41 663.363 771.91 652.028 772.198 636.479 c 16
 775.752 444.74 778.779 407.019 764.526 236.78 c 0
 755 123 638.98 43.6084 516.01 42.7051 c 16
 420 42 300 90 294.839 226.084 c 0
 288.651 389.243 284.603 454.886 299.913 639.266 c 8
 301.809 662.096 309.7 675.676 325.757 692.014 c 16
 342.529 709.08 382.072 704.906 395.183 710.66 c 8
 406.536 715.643 411.114 743.104 398.745 742.251 c 16
 329.704 737.488 165.667 737.457 77.3105 736.688 c 8
EndSplineSet
EndChar
StartChar: V
Encoding: 86 86 32767
Width: 824
Flags: WO
Fore
76 736 m 20
 148 732 250 724 320 732 c 12
 334.806 733.692 337.919 699.322 324 694 c 20
 290 681 254.219 660.178 266 628 c 20
 333 445 336 416 402 240 c 12
 408.664 222.23 442.337 214.638 450 232 c 20
 529 411 550 459 608 646 c 12
 616.334 672.871 590 690 558 698 c 12
 546.593 700.852 549.374 729.762 561 728 c 20
 627 718 720 728 784 724 c 13
 780.88 706.84 793.152 683.16 776 680 c 20
 738 673 702.817 673.023 688 638 c 20
 578 378 515 274 419 13 c 12
 415.846 4.42383 410.136 -2.18555 401 -2 c 28
 389.958 -1.77539 383.908 6.66992 380 17 c 20
 282 276 216 502 140 632 c 12
 120.649 665.1 108 686 72 703 c 12
 60.2773 708.536 63.0557 736.719 76 736 c 20
EndSplineSet
EndChar
StartChar: W
Encoding: 87 87 32767
Width: 1160
Flags: W
Fore
47.7354 738.547 m 8
 34.2422 738.547 34.5312 706.729 47.7354 703.948 c 16
 85.126 696.076 97.502 690.172 121.532 674.429 c 8
 144.772 659.203 149.519 640.176 159.906 614.407 c 16
 262.238 360.546 294.296 262.391 392.12 8.53027 c 8
 395.966 -1.44922 400.976 -13.1982 408.849 -13.1982 c 8
 422.733 -13.1982 427.292 -0.157227 434 12 c 16
 496.973 126.138 519.565 158.812 580 270 c 8
 584.547 278.365 590.485 284.357 600 284 c 24
 611.078 283.584 617.412 276.092 622 266 c 16
 676.118 146.941 686.848 108.894 732.523 8.53027 c 8
 736.698 -0.643555 741.194 -8.88733 751.267 -9.26172 c 24
 762.226 -9.66895 768.817 -1.58984 773.042 8.53027 c 16
 867.502 234.84 949.74 400.888 1049.54 645.895 c 8
 1056.42 662.785 1063.67 672.267 1078.93 682.269 c 24
 1098.24 694.932 1114.35 694.107 1136 698.044 c 8
 1150.03 700.596 1150.25 734.062 1136 734.611 c 16
 1084.83 736.58 1031.79 735.594 943.236 739.53 c 8
 931.07 740.071 925.41 711.351 937.332 708.867 c 16
 960.946 703.948 964.049 698.83 978.561 688.204 c 16
 1002.75 670.493 990.857 648.874 982.305 626.215 c 16
 900.223 408.76 878.961 382.46 801.641 201.411 c 12
 794.934 185.706 764.131 183.544 757.896 199.442 c 20
 718.539 299.808 735.037 267.94 695.68 387.983 c 8
 691.107 401.931 692.226 411.927 697.646 425.566 c 16
 729.705 506.252 754 570 800.705 656.717 c 8
 810.061 674.088 820.556 681.545 837.823 691.092 c 24
 848.24 696.852 851.551 697.061 867.294 699.028 c 8
 882.606 700.942 884.683 739.117 869.262 738.547 c 16
 816.128 736.58 756.854 734.611 694.293 738.547 c 0
 675.533 739.727 681.021 709.534 693.31 703.948 c 16
 714.957 694.107 726.397 698.203 736.507 682.301 c 24
 744.333 669.99 743.028 658.406 737.491 644.91 c 16
 706.004 568.161 703.912 549.06 675.791 500.845 c 8
 668.381 488.14 643.228 487.067 638.078 500.845 c 16
 613.067 567.755 601.291 582.921 579.074 664.59 c 8
 575.089 679.239 591.49 690.889 606.624 692.092 c 16
 619.002 693.076 621.305 695.092 633.112 697.061 c 8
 648.767 699.671 652.902 738.242 637.047 737.562 c 16
 568.17 734.611 476.95 737.562 394.299 737.562 c 8
 380.422 737.562 380.583 704.091 394.299 701.98 c 16
 419.881 698.044 428.128 696.488 445.256 684.269 c 24
 456.38 676.332 461.647 669.331 466.903 656.717 c 16
 516.101 538.643 525.748 499.54 567.074 379.496 c 8
 570.984 368.138 568.919 359.849 564.121 348.836 c 16
 530.254 271.102 530 277 473.966 184.539 c 8
 465.267 170.186 437.174 171.393 431 187 c 16
 344.98 404.454 325.782 446.149 264.208 641.958 c 8
 258.185 661.113 274 678 286.838 688.204 c 0
 300.328 698.927 302.008 700.011 325.052 700.995 c 8
 339.704 701.621 341.671 739.198 327.021 738.547 c 16
 238.463 734.611 148.1 738.547 47.7354 738.547 c 8
EndSplineSet
EndChar
StartChar: X
Encoding: 88 88 32767
Width: 828
Flags: W
Fore
81.0527 748.32 m 8
 64.6299 750.02 58 712 80 706 c 0
 107.483 698.505 136.141 690.999 157.412 664.04 c 16
 256.392 538.6 274 516.221 372 380 c 8
 380.703 367.903 385.781 353.242 376 342 c 16
 290.739 244 259.332 195.6 173.092 96.6201 c 8
 136.957 55.1475 110.781 42.6611 47.6523 32.1396 c 0
 30.0127 29.2002 38.832 -4.32031 51.5723 -4.32031 c 0
 97.6748 -4.32031 123.851 1.23892 170.152 1.55957 c 24
 223.692 1.93066 253.826 -2.01367 307.352 -3.33984 c 16
 334 -4 338 28 315 32 c 8
 282.905 37.582 248 46 244 76 c 0
 241.151 97.3704 255.333 118.448 272 140 c 16
 328.84 213.5 329.2 209.44 388 280 c 12
 398.099 292.118 419.359 299.197 428 286 c 16
 481.9 203.68 490.14 176.04 546 80 c 8
 559.591 56.6338 537.24 39.81 498 30 c 0
 482 26 479.776 -4.57163 501.392 -3.33984 c 0
 560 0 588.662 3.20232 644.472 1.55957 c 24
 698.573 -0.0332031 725.56 -9.3918 782.652 -11.3398 c 0
 802 -12 799.453 25.1318 784 32 c 16
 748.72 47.6807 723.523 46.6182 700.332 75.0596 c 16
 596.452 202.46 562 260 472 372 c 8
 463.191 382.961 461.392 396.881 470 408 c 16
 540.56 499.141 585.411 525.43 652 608 c 0
 702 670 722 672 784 688 c 0
 810.5 694.839 800.293 743.451 779.712 742.38 c 0
 734 740 717.972 738.52 679.752 738.52 c 8
 632.872 738.52 614.426 738.227 559.552 739.5 c 0
 538 740 534 700 558.572 694.94 c 0
 588.017 688.878 594 674 594 658 c 8
 594 642.936 588.507 634.433 580 622 c 16
 516.3 528.9 522.64 530.521 456 458 c 8
 447.539 448.793 432.282 450.632 424 460 c 16
 364.22 527.62 362.841 554.86 306 646 c 8
 300.554 654.732 294.584 662.253 299.141 671.48 c 24
 308.451 690.334 320.062 688.596 349 692 c 0
 383 696 373.156 744.445 351 743 c 0
 305 740 262.789 741.228 206.412 742.44 c 24
 157.479 743.492 137.892 742.44 81.0527 748.32 c 8
EndSplineSet
EndChar
StartChar: Y
Encoding: 89 89 32767
Width: 762
Flags: W
Fore
39 748 m 8
 25.7451 748.864 27.8193 715.647 41 714 c 16
 81 709 84.1064 693.243 102 670 c 16
 192.646 552.254 229 490 299.288 372 c 8
 306.137 360.503 313.1 354.352 314 341 c 16
 320 252 321 207 317 102 c 8
 315.942 74.2451 295.713 61.986 273 46 c 24
 256.863 34.6426 241 45 225 30 c 8
 215.038 20.6602 217 -5 224 -5 c 8
 282.111 -5 314.934 -1.70473 373 -4 c 24
 423.064 -5.97852 450.993 -11.875 501 -15 c 16
 517 -16 514.093 25.7266 497 30 c 16
 481 34 462.197 33.5723 445 46 c 24
 430.265 56.6484 418.17 65.8203 418 84 c 16
 417 191 417 232 419 364 c 0
 419.215 378.21 427.123 388.732 435 398 c 0
 503 478 555.84 535.851 639 636 c 8
 657.704 658.525 670.342 670.213 695 686 c 24
 711.475 696.548 730 701 741 706 c 8
 759.928 714.604 740.778 754.283 720 755 c 16
 691 756 646.291 746.528 599 747 c 24
 576.297 747.227 584 749 541 752 c 8
 528.544 752.869 532.604 728.223 542 720 c 16
 550 713 554.902 709.458 564 704 c 16
 574 698 571.889 684.744 571 672 c 24
 569.437 649.597 563.344 636.762 551 618 c 16
 501 542 473 502 423 434 c 8
 412.362 419.533 388.457 418.173 377 432 c 16
 319 502 277.203 573.594 250 628 c 0
 246 636 247 651.955 247 663 c 0
 247 688 268 708 289 714 c 0
 302.767 717.933 311 750 284 748 c 0
 254.065 745.782 201.673 743.823 149 744 c 24
 106.072 744.145 85 745 39 748 c 8
EndSplineSet
EndChar
StartChar: Z
Encoding: 90 90 32767
Width: 724
Flags: W
Fore
66 752 m 4
 48.8662 753.558 40 666 32 614 c 12
 29.8223 599.848 49.7715 594.389 64 596 c 28
 75.5215 597.305 81.9092 605.15 86 616 c 20
 109 677 120.085 683.595 228 688 c 4
 326 692 360 694 454 690 c 12
 468.889 689.366 465.98 664.585 458 652 c 20
 302 406 248 330 74 54 c 4
 63.8114 37.8388 66.1738 -5.83887 90 -5 c 20
 232 0 270.561 -6.76889 386 -8 c 28
 490.521 -9.11426 554 -9 654 -11 c 4
 659.597 -11.1123 670.79 23.1465 672 28 c 4
 683.715 75 675.539 66.6182 694 134 c 12
 698.244 149.49 665.41 168.25 658 154 c 20
 619 79 609.701 54.9746 552 50 c 20
 436 40 340 42 220 48 c 12
 201.482 48.9258 197.48 78.7334 208 94 c 20
 372 332 406 396 590 670 c 4
 599.135 683.603 618 704 616.369 722 c 4
 615.04 736.661 603.71 748.086 590 747 c 4
 489 739 465.614 740.059 386 739 c 28
 293.181 737.766 234 740 148 742 c 12
 115.792 742.749 88 750 66 752 c 4
EndSplineSet
EndChar
StartChar: quoteleft
Encoding: 96 8216 32767
Width: 238
Flags: W
Fore
148 495 m 0
 164 495 186 517.029 186 540 c 16
 186 566 173.607 578.074 153 586 c 16
 127 596 123.655 606.049 124 625 c 16
 125 680 146 684 169 699 c 8
 174.592 702.646 175.396 710.976 171 716 c 16
 164 724 158.908 725.202 150 725 c 16
 106 724 55 647 54 602 c 8
 52.7656 546.468 86.9922 495 148 495 c 0
EndSplineSet
EndChar
StartChar: a
Encoding: 97 97 32767
Width: 457
Flags: W
HStem: -10.2744 71.1445<128.338 182> -6.99902 58.1738<350 394> 406.028 50.4391<200 236>
VStem: 24.252 98.9889<84.1709 105.473> 267 80<99 172> 270.535 77.5011<250.947 314.245>
Fore
267 170.435 m 12
 267 183.397 258.917 198.984 246 195.646 c 20
 208.05 185.832 187 182.07 159.963 170.028 c 4
 131.685 157.433 123 128.742 123 105.473 c 4
 123 81.2324 128.87 60.8701 182 60.8701 c 4
 217.42 60.8701 253.085 86.1611 267 99.6553 c 13
 267 127.967 267 123.826 267 170.435 c 12
73 388.595 m 4
 123 430.288 151.244 456.467 236 456.467 c 4
 279.88 456.467 330.436 439.159 343.388 399.393 c 4
 350.978 376.087 347 203.337 347 106.441 c 4
 347 73.4746 362 51.1748 394 51.1748 c 12
 406.026 51.1748 413.88 49.2344 424 49.2344 c 4
 432.854 49.2344 435 46.7529 435 41.4785 c 20
 435 29.8438 418.737 16.9326 416 15.2988 c 4
 390 -0.214844 378 -7.00195 350 -7.00195 c 12
 323.407 -7.00195 298 5.60352 288 16.2686 c 4
 275.061 30.0693 266.53 37.3838 264 45.3564 c 12
 261.883 52.0293 252.384 48.5869 246 45.3564 c 20
 216.905 30.6377 191.588 -10.2744 128.338 -10.2744 c 12
 71.0498 -10.2744 23.3418 28.623 23.3418 84.1709 c 20
 23.3418 141.818 68.0459 171.765 124.543 189.652 c 20
 186.527 209.278 196 208.25 248 225.703 c 12
 260.874 230.022 269.701 244.538 270 250.912 c 5
 271.694 293.402 269 314.905 267 364.354 c 5
 262.169 388.469 216.444 406.048 200 406.048 c 12
 169.537 406.048 158.529 402.109 130 376.96 c 4
 123.043 370.827 109.622 347.742 106 337.206 c 4
 100 319.754 84.9111 315.875 67 315.875 c 20
 47 315.875 44 328.118 44 346.902 c 4
 44 352.066 60.6572 378.304 73 388.595 c 4
EndSplineSet
EndChar
StartChar: b
Encoding: 98 98 32767
Width: 528
Flags: W
HStem: -6.13477 46.1348<241 262> 432 20G<260.65 347.606>
VStem: 50.9102 77.0898<164.933 336 336.031 348.464 422 482.258> 50.9102 80.5378<48 422>
Fore
128 336 m 16
 128 235.515 128.765 209.715 132 110 c 0
 132.176 104.6 143.155 87.54 156 78 c 24
 191.557 51.5928 215.71 40 260 40 c 16
 365.51 40 401.047 121.763 400.183 209.85 c 24
 399.158 314.325 324.595 408 230 408 c 8
 197.356 408 176.907 405.1 152 384 c 24
 135.621 370.125 128 357.466 128 336 c 16
10.8896 764.25 m 16
 37.5703 775.8 38.1357 770.846 55.7607 776.955 c 24
 70.6357 782.111 76.3994 791.97 92.1436 791.97 c 16
 106.697 791.97 109.479 792.752 117.611 786.195 c 24
 124.756 780.436 127.673 774.575 127.313 765.405 c 16
 121.25 610.635 131.448 524.57 131.448 422.931 c 8
 131.448 413.405 141.854 403.062 150 408 c 16
 203.361 440.34 231.3 452 290 452 c 16
 405.212 452 492.115 344.803 486.287 224.865 c 24
 479.784 91.043 375.928 -6.13477 243.737 -6.13477 c 0
 116.398 -6.13477 153.347 14.2246 92.1436 14.6543 c 24
 76.9932 14.7607 68.9893 5.4502 54.5488 10.0352 c 16
 47.2715 12.3457 49.6982 19.2754 49.6982 19.2754 c 0
 49.6982 30.8252 51.0703 36.5918 50.9102 48.1504 c 16
 47.2715 311.49 62.5527 503.54 48 656 c 8
 46.1504 675.377 48.2842 686.386 40 704 c 24
 33.2422 718.369 26.6133 730.567 14 734 c 0
 5.51074 736.31 -0.273438 759.418 10.8896 764.25 c 16
EndSplineSet
EndChar
StartChar: c
Encoding: 99 99 32767
Width: 453
Flags: W
HStem: -6.61644 69.0853<252.578 282.798> 417 33.031<254 265>
VStem: 25.9258 88.0742<231 251>
Fore
280 451 m 4
 338.116 451 366.683 451.34 406 417 c 28
 418.422 406.151 424 396 422 379 c 4
 419.998 361.984 418.461 366.07 408 355 c 12
 399.464 345.966 386 347 376.945 356.057 c 4
 357.812 375.194 317.276 417 258 417 c 12
 169.492 417 114 337.559 114 249 c 4
 114 142.733 181.914 61.6045 282.798 61.6045 c 20
 346.725 61.6045 369.413 77.0684 402 105 c 4
 416 117 430.18 110.815 420 93 c 4
 400 58 343.239 -7.02832 252.578 -7.02832 c 4
 115.424 -7.02832 25.9258 97.0264 25.9258 232.077 c 4
 25.9258 359.378 132.386 451 280 451 c 4
EndSplineSet
EndChar
StartChar: d
Encoding: 100 100 32767
Width: 557
Flags: W
HStem: -4.47184 57.8319<233.725 264.908>
VStem: 34.9821 87.1749<216.128 245.102> 320.473 122.428<722.374 728.344> 366 77.1331<634 672> 370 74.597<450.895 462 462.071 566.753> 373.562 77.075<97 271.774>
Fore
252.491 417.636 m 8
 166.096 422.742 121.932 324.781 121.932 245.102 c 0
 121.932 151.971 169.707 52.6299 264.908 52.6299 c 0
 308.369 52.6299 337.053 53.9149 368.388 83.6738 c 24
 372.85 87.9111 373.488 92.0078 373.562 98.1602 c 16
 374.533 179.625 371.882 311.234 368 334 c 1
 350.087 383.516 314 414 252.491 417.636 c 8
393 770 m 0
 415 780 416.508 780 433 780 c 16
 448 780 444 763.691 444 758 c 0
 444 752.826 442.894 752.034 442.894 748.016 c 16
 442.894 465.515 446.86 339.944 451 74 c 8
 451.186 62.1084 461.317 51.7744 473 54 c 16
 494 58 508 56 526 54 c 0
 539.334 52.5184 548.786 31.1974 532 28 c 0
 490 20 454 10 392 3 c 8
 383.175 2.00391 375.46 7.23926 374 16 c 16
 370 40 372.069 17.5127 370 32 c 8
 368.999 39.0059 363.004 50.0039 358 45 c 16
 336.269 23.2695 294.787 -5.25 233.725 -5.25 c 4
 88 -5.25 34.252 101.266 34.252 216.128 c 8
 34.252 343.572 144.871 442.262 258.699 442.262 c 0
 295.952 442.262 316.752 444.054 350.901 430.601 c 8
 364.579 425.212 369.839 447.3 370 462 c 16
 371.035 556.166 368.069 571.177 366 670 c 8
 365.744 682.209 358.15 686.906 350 696 c 24
 343.912 702.793 338.183 704.847 332 710 c 0
 328.895 712.586 319.642 719.726 320.473 728.355 c 24
 321.071 734.564 325.843 736.434 331.136 739.736 c 16
 354 754 358.986 754.539 393 770 c 0
EndSplineSet
EndChar
StartChar: e
Encoding: 101 101 32767
Width: 494
Flags: W
HStem: -8.38574 69.8457<255.838 315.903> 315.8 21.12<151 328> 434.414 25.769<252 261>
VStem: 44.9156 80.1487<227.271 262.478> 340.092 86.4435<338.025 357.469>
Fore
254.653 434.414 m 16
 299.609 434.414 340.879 396.65 340.879 357.469 c 8
 340.879 347.583 336.98 336.851 326.682 336.851 c 16
 261.616 336.851 219.433 336.92 152 336.92 c 8
 143.716 336.92 138.492 347.392 142.269 354.47 c 16
 167.112 401.032 198.703 434.414 254.653 434.414 c 16
259.386 460.183 m 0
 136.352 460.183 44.0781 346.52 44.0781 227.271 c 0
 44.0781 117.107 129.109 -8.38574 255.838 -8.38574 c 16
 355.803 -8.38574 438 71.96 455.185 116.401 c 0
 456.255 119.169 452.695 127.101 450 129.56 c 0
 447.118 132.188 436.441 129.76 434 127.64 c 0
 409.157 106.062 361 61.46 315.903 61.46 c 12
 204.882 61.46 124.521 153.452 124.521 262.478 c 8
 124.521 282.101 122.031 294.222 129.721 311.257 c 8
 131.275 314.7 134.223 315.8 138 315.8 c 16
 246.839 315.8 325.837 315.8 398 315.8 c 8
 412.691 315.8 427.239 323.334 427.239 338.025 c 16
 427.239 406.168 359.942 460.183 259.386 460.183 c 0
EndSplineSet
EndChar
StartChar: f
Encoding: 102 102 32767
Width: 357
Flags: HMW
Fore
34.3535 406.3 m 16
 57.8076 418.026 62.1895 407.606 73.4932 419.689 c 16
 80.2617 426.924 88.2041 444.38 87.9141 453.68 c 0
 85.8535 519.6 90.251 558.237 95.9238 586.27 c 0
 110.573 658.649 133.453 695.012 186.794 745.17 c 24
 234.312 789.852 293.609 817.27 333.054 817.27 c 0
 384.554 817.27 395.362 813.874 425.754 795.64 c 0
 446.354 783.279 460.773 763.709 462.834 745.17 c 8
 465.974 716.904 442.233 700.88 407.214 700.88 c 0
 386.613 700.88 374.254 712.209 368.073 722.51 c 0
 354.255 745.541 345.414 757.529 310.394 757.529 c 0
 246.533 757.529 250.653 753.409 234.174 744.14 c 0
 219.811 736.061 180.654 678.881 175.519 644.901 c 0
 168.254 596.85 164.134 535.05 166.193 460.89 c 8
 166.681 443.377 185.916 430.805 195.033 427.93 c 0
 231.768 416.345 254.773 417.63 297.407 413.713 c 8
 309.121 412.636 317.662 403.053 317.662 392.392 c 8
 317.662 382.069 311.985 371.703 301.672 372.137 c 16
 248.594 374.369 215.321 375.191 171.613 375.191 c 8
 165.553 375.191 162.072 369.524 162.019 363.464 c 16
 160.953 243 164.151 182.762 170.548 53.7686 c 8
 170.916 46.3184 174.34 42.4658 180.142 37.7783 c 24
 197.228 23.9756 210.11 27.4727 232.113 20.0498 c 8
 242.164 16.6592 241.882 -7.33594 231.312 -6.45508 c 16
 167.35 -1.125 111.915 2.07422 26.6309 -6.45508 c 8
 15.7393 -7.54395 19.4453 17.2607 29.8291 20.7217 c 16
 52.2158 28.1836 55.9492 27.8721 71.4043 36.749 c 24
 78.5078 40.8281 87.3955 41.3496 87.3955 49.541 c 16
 87.3955 180.666 83.1318 236.388 83.1318 355.785 c 8
 83.1318 363.401 82.1963 372.222 74.6025 372.806 c 16
 60.7441 373.873 50.834 375.399 34.0928 378.029 c 8
 22.9209 379.783 24.2383 401.242 34.3535 406.3 c 16
EndSplineSet
EndChar
StartChar: g
Encoding: 103 103 32767
Width: 554
Flags: W
HStem: -67 63.5975<212.903 237.991 239 331.941> 127.283 21.5254<228 253> 373 43.1172<421 515> 429.622 29.5879<222 243>
VStem: 46.8477 79.306<-209 -189> 54 83.0781<285 311> 336.649 75.3511<277.809 293 293.024 308.942> 435.997 70.0031<-165 -123>
Fore
198 -74 m 12
 153.378 -104.893 126 -133.49 126 -189 c 12
 126 -264.713 198.287 -307 274 -307 c 20
 374 -307 436 -233 436 -165 c 4
 436 -97.0293 393.175 -66 332 -66 c 4
 278.637 -66 269 -65 238 -67 c 4
 227.274 -67.6924 211 -65 198 -74 c 12
236.77 429.622 m 20
 174.461 429.622 137.078 383.308 137.078 308.539 c 12
 137.078 232.249 165.011 148.809 241.301 148.809 c 20
 309.271 148.809 341.745 234.786 336 309 c 28
 331.178 371.291 299.247 429.622 236.77 429.622 c 20
241.301 459.21 m 4
 284.35 459.21 355.718 450.146 381.772 417.293 c 5
 412 417 469.96 416.117 510.743 416.117 c 4
 521.006 416.117 523.35 410.214 524.336 409.32 c 4
 526.78 407.11 529.872 394.581 530 383 c 4
 530.057 377.981 523.293 373.613 515.938 373.07 c 4
 485.352 370.804 458 373 422 373 c 12
 411.569 373 407.38 361.412 408 351 c 20
 409.548 324.999 412 325.111 412 293 c 4
 412 225.028 347.788 127.283 252.629 127.283 c 4
 229.972 127.283 234.982 123.204 216 127 c 4
 206 129 210.707 131.3 200 125 c 4
 180.742 113.674 136.281 93.0039 137.078 66.1094 c 4
 138 35 156.71 -2.52051 196 -3 c 4
 278 -4 324 -5 382 -7 c 4
 458.375 -9.63379 506 -47.5107 506 -123 c 4
 506 -253 369 -339 236 -339 c 4
 116 -339 46 -291 46 -209 c 4
 46 -131 120.657 -108.769 152 -75 c 4
 156.36 -70.3018 152.745 -63.4639 148.343 -61.9023 c 4
 113.226 -49.4414 74 -19.1816 74 25 c 4
 74 67.8682 122.328 95.9199 159 123 c 4
 165.721 127.963 151.894 142.983 143.876 147.339 c 4
 104 169 54 207.771 54 295 c 4
 54 410.551 155.951 459.21 241.301 459.21 c 4
EndSplineSet
EndChar
StartChar: h
Encoding: 104 104 32767
Width: 543
Flags: W
VStem: 81 81<61 353 395 603.9> 376 72<70 175>
Fore
52.3779 722.714 m 16
 85.2344 739.709 107.408 750.936 138 760 c 8
 150.385 763.67 167 756.917 167 744 c 16
 167 580.848 162.802 552.886 162.802 398.798 c 8
 162.802 394.019 169.241 389.047 173 392 c 16
 220.586 429.389 256.247 447 316 447 c 16
 393.475 447 441.794 378.117 445 314 c 0
 446 294 448 189 448 87 c 8
 448 63.9766 452.623 42.5508 474 34 c 16
 490.995 27.2021 495.707 36.9562 503 28 c 24
 509.896 19.5322 513.92 0 503 0 c 16
 471.275 0 458.258 3.52539 420.868 3.52539 c 8
 384.924 3.52539 358 0 328.829 -1.27246 c 0
 303.991 -2.35591 308 26 324 30 c 0
 337.596 33.3989 349.404 33.8224 361 44 c 24
 370.311 52.1719 376 59.6113 376 72 c 16
 376 171.704 374.98 201.332 370.018 297.637 c 12
 367.042 355.376 317.816 397 260 397 c 16
 224 397 204.941 380.7 173.933 361.931 c 24
 168.283 358.511 161 357.604 161 351 c 16
 161 251.296 162 173.502 162 67 c 8
 162 54.2969 162.77 44.7285 172 36 c 24
 184.303 24.3662 197.719 29.6514 214 25 c 16
 221 23 228.148 -1.27246 217.796 -1.27246 c 16
 167.943 -1.27246 145.283 3.25879 96.5645 3.25879 c 8
 71.7568 3.25879 65.9746 -1.27246 33.1172 -1.27246 c 8
 20.3066 -1.27246 14.9609 26.6221 27 31 c 16
 39.4619 35.5322 50.5889 29.1533 62 37 c 24
 73.959 45.2236 80.7061 54.4893 81 69 c 16
 86 316 79 447 83 669 c 8
 83.2881 685.002 65.4639 689.069 53 697 c 8
 44.5371 702.386 43.4678 718.105 52.3779 722.714 c 16
EndSplineSet
MinimumDistance: x7,-1 
EndChar
StartChar: i
Encoding: 105 105 32767
Width: 268
Flags: HMW
Fore
166.229 458.58 m 8
 152.391 458.58 146.521 451.893 134 446 c 16
 97.6201 428.88 111.17 433.631 78 424 c 8
 70.4014 421.794 71.4375 413.708 69.9297 405.94 c 16
 68 396 76 392 88 388 c 0
 91.6543 386.782 99.8037 357.863 100 352 c 0
 104.279 223.6 104 186.54 104 56 c 8
 104 42.9766 91.286 40.4982 80 34 c 24
 68.3779 27.3086 65.1202 28.28 48 24 c 0
 32 20 31.8736 -2.11492 43.1797 -1.72949 c 0
 137.34 1.48047 99.6553 1.82923 137.34 1.48047 c 24
 169.911 1.17871 174.79 -2.7998 218.66 -2.7998 c 8
 229.384 -2.7998 228.38 21.3086 218 24 c 16
 189.109 31.4902 182.353 54.5186 182 62 c 0
 175.58 197.89 170 266 180 428 c 8
 180.827 441.39 178 458.58 166.229 458.58 c 8
150.779 715.87 m 20
 127.239 715.87 105.84 696.352 105.84 670.93 c 20
 105.84 644.18 125.21 622.78 151.85 622.78 c 20
 178.6 622.78 200 644.18 200 672 c 12
 200 698.373 177.152 715.87 150.779 715.87 c 20
EndSplineSet
EndChar
StartChar: j
Encoding: 106 106 32767
Width: 258
Flags: HMW
Fore
164 460 m 16
 131 441 108 432 69 417 c 0
 54.7837 411.532 57.9255 397.187 64 387 c 24
 71.3906 374.606 89.065 385.465 99 375 c 24
 110.729 362.646 111 350.035 111 333 c 16
 111 225 114 81 114.042 -44 c 8
 114.052 -73.4883 105.301 -91.0902 88.042 -115 c 24
 65.29 -146.519 35 -162 10 -177 c 8
 1.96582 -181.82 1.94629 -203.244 11.042 -201 c 16
 84 -183 133 -132 179.042 -75 c 8
 186.115 -66.2441 186.045 -58.2559 186.042 -47 c 16
 186 132 182 270 187.042 445 c 0
 187.36 456.037 173.293 465.351 164 460 c 16
138 707 m 0
 109 707 88.0922 690.067 88.042 659 c 0
 88 633 103.983 611 134 611 c 0
 167 611 184 631.969 184 659 c 16
 184 685 168.017 707 138 707 c 0
EndSplineSet
EndChar
StartChar: k
Encoding: 107 107 32767
Width: 656
Flags: W
Fore
74 700 m 0
 81.21 677.34 120 688 120 644 c 0
 120 401.915 118 364 116 114 c 8
 115.771 85.3633 99.1805 71.2658 80 50 c 24
 67.2041 35.8125 56.4912 20.8779 40 21.7197 c 0
 27.6592 22.3496 27.6504 -1.55371 40 -2 c 0
 85.6592 -3.65039 88.208 -0.180802 119.041 -0.259766 c 24
 158.43 -0.360352 180.611 -3 220 -3 c 16
 232 -3 236 21 221 27 c 0
 207.992 32.2031 197.219 35.3058 190 48 c 24
 183.434 59.5469 188.946 68.751 188 82 c 16
 186 110 188 152 190 205 c 0
 191.216 237.227 229.848 234.71 248 220 c 16
 306 173 344 142 382 108 c 8
 397.503 94.1289 409 82.8018 409 62 c 16
 409 34 383.45 27.0605 368 25 c 8
 358.213 23.6943 354 0 372 0 c 8
 415.687 0 440.313 2.02207 484 2 c 24
 525.348 1.97949 556.01 -5.14941 590 0 c 8
 602.555 1.90234 608.55 30.0693 596 32 c 16
 582.609 34.0596 573.488 40.3496 562 50 c 16
 459 136.52 390.88 188.45 292 276 c 8
 282.055 284.806 280.401 300.818 290 310 c 20
 336 354 353.279 372.319 402 400 c 28
 425.212 413.188 447.61 416.675 466.15 423.885 c 4
 470.089 425.416 489.544 431.107 503 436 c 4
 514 440 516.035 464 502 464 c 4
 474 464 451.795 459.619 419.609 458.82 c 28
 384.67 457.953 367.08 455.88 330 460 c 12
 319.922 461.12 306.918 460.099 306 450 c 20
 304 428 334 434 333.16 413.07 c 4
 332.715 401.977 330.97 388.943 324 382 c 4
 302.659 360.74 294 349 262 325 c 12
 242.565 310.424 200.799 306.72 200 331 c 20
 194.851 487.56 202 543.27 202 740 c 8
 202 749.866 196.048 746.496 178 748 c 0
 166 749 136 732 102 724 c 8
 88 720.706 70.2988 711.633 74 700 c 0
EndSplineSet
EndChar
StartChar: l
Encoding: 108 108 32767
Width: 268
Flags: W
VStem: 22.7543 213.267<1 7> 94 86<67 464.649> 98 82.1452<205.184 643.818> 98 85.1559<591.608 644 644.031 660.551>
Fore
168 776 m 0
 148.983 776 137.894 763.038 118 754 c 24
 92.2588 742.306 81.2998 737.649 54 724 c 8
 46.0967 720.049 44.2988 706.332 52 702 c 16
 85.5996 683.1 98 684.05 98 644 c 0
 98 404 98 304 94 72 c 0
 93.6552 52.003 64 38 34 24 c 4
 19.3882 17.1812 18.3896 -4.25 29.8135 -4.25 c 16
 69.7139 -4.25 81.4736 -4.25 115.914 -4.25 c 16
 162.114 -4.25 189.409 -9.30134 225.114 -8.4502 c 0
 244 -8 234.87 16.6035 224 20 c 16
 207.199 25.25 180 44 180 66 c 0
 180 352.65 180 680 188 748 c 8
 189.608 761.67 180 776 168 776 c 0
EndSplineSet
EndChar
StartChar: m
Encoding: 109 109 32767
Width: 842
Flags: W
VStem: 8.9144 221.767<10 16> 75 79<75 254> 374 74<79 142> 613.542 207.538<10 16> 675.604 74.9062<170.521 286.154>
Fore
158 456 m 12
 156.758 470.368 133.809 466.28 122 458 c 20
 91.0088 436.27 76.2744 419.748 42.0312 403.545 c 12
 34.8721 400.157 37.9931 390.659 41.8584 383.746 c 28
 47.3457 373.933 59.0794 378.15 65.9326 369.236 c 28
 73.8623 358.922 75.001 351.01 75 338 c 20
 74.9951 211.495 74.0088 242.614 75 104 c 12
 75.1436 83.9004 81.0791 70.7705 70 54 c 28
 59.9346 38.7637 44.3914 34.8783 30 32 c 4
 0 26 6.4248 0.441406 19.7422 0.325195 c 20
 58.2402 -0.0117188 75.1934 4.18299 112.206 3.91797 c 28
 151.833 3.63379 177.078 -3.05166 211.135 -1.3457 c 4
 238 0 236 24 214.627 26.624 c 4
 199.777 28.4472 185.084 29.456 172 42 c 28
 158.273 55.1602 154 66.9844 154 86 c 20
 154 188 152 240 160 344 c 4
 160.397 349.158 166.228 353.409 172 358 c 28
 203.085 382.725 220 402 260 404 c 12
 313.947 406.697 352.532 374.659 367.97 322.897 c 20
 372.246 308.56 371.669 203.125 374 92 c 12
 374.281 78.5928 371.917 70.8244 364 60 c 28
 352.471 44.2363 341.845 33.4873 324 32 c 4
 300 30 299.892 -0.950195 313.741 -1.07129 c 20
 352.239 -1.40723 376.177 2.71387 425.675 2.28223 c 12
 456.218 2.01562 471.039 1.95898 502 0 c 4
 519.513 -1.10938 520 26 500 28 c 4
 485.112 29.4888 475.131 37.3153 464 50 c 28
 453.606 61.8447 447.691 70.2451 448 86 c 20
 450 188 450 246 452 338 c 12
 452.243 349.196 462.779 351.237 472 357.593 c 28
 505.363 380.591 525.685 400 564 400 c 4
 614.6 400 668.136 382.221 671.654 331.248 c 20
 678.491 232.185 673.561 188.034 677 78 c 12
 677.559 60.1201 670.562 49.6658 657 38 c 28
 645.205 27.8535 642.038 30.208 620 26 c 12
 609.754 24.0439 611.569 0.0908203 622 0 c 20
 661.599 -0.345703 675.8 3.21778 711.702 3.08691 c 28
 751.76 2.94043 769.972 0.37793 811.76 -1.08691 c 12
 824.277 -1.52539 826 30 808 30 c 4
 797.001 30 772.729 35.1458 760 52 c 28
 753.658 60.3965 756.731 67.5029 756 78 c 20
 748.179 190.272 750.301 319.045 746 347 c 4
 738 399 686.118 453.424 620 454 c 20
 539.703 454.7 530 442 466 386 c 12
 459.136 379.993 447.923 383.766 444 392 c 20
 423.475 435.08 373.06 462 314 462 c 20
 260 462 236 442 182 402 c 12
 174.812 396.676 161.104 397.124 160 406 c 20
 157.944 422.518 159.999 432.883 158 456 c 12
EndSplineSet
EndChar
StartChar: n
Encoding: 110 110 32767
Width: 544
Flags: WO
HStem: 388 68<274 314>
VStem: 374 76<84.0264 305>
Fore
154 438 m 0
 151.419 441.097 150.16 443.184 142 444 c 0
 122 446 61.3066 413.816 44 403 c 0
 36 398 34 382 45.3145 377 c 0
 76.165 363.367 67.5723 358.604 78.8145 330.5 c 0
 82.8145 320.5 80 98 76 72 c 0
 72.7114 50.624 56 38 36 32 c 0
 27.1689 29.3506 28.8145 0 35.3145 0 c 0
 48.8516 0 81.0605 1.38494 110.314 2 c 24
 148.336 2.7998 169.785 3.5 207.814 3.5 c 16
 216.814 3.5 214 31.5 204 34 c 0
 196.104 35.9736 174.74 33.7558 164 46 c 24
 144.721 67.9795 152.476 90.7666 152 120 c 16
 151 181.5 154 260 156 332 c 8
 156.644 355.182 177.655 365.793 200 372 c 16
 236 382 227.826 388 274 388 c 0
 328 388 374 358 374 294 c 0
 374 257.584 377.669 119.049 376 84 c 0
 374 42 354 38 322 27 c 0
 315.691 24.8314 314.5 0 322 0 c 0
 340.5 0 359.814 2.5 382.314 2.5 c 0
 399.87 2.5 478.994 0 498 0 c 0
 505 0 507.682 18.9274 497.5 23 c 0
 470 34 453.013 42.7615 452 62 c 0
 450 100 450 294.128 450 322 c 0
 450 384 398 456 314 456 c 0
 248 456 221.5 417 184 389 c 4
 180.22 386.178 173.848 381.076 168 384 c 16
 160 388 160 406 160 420 c 0
 160 428.732 159 432 154 438 c 0
EndSplineSet
EndChar
StartChar: o
Encoding: 111 111 32767
Width: 526
Flags: W
HStem: -7 35<261 284> 422 36<245 263>
VStem: 28.7402 91.2598<216 236> 402 91.1201<216 236>
Fore
246 422 m 0
 328.098 422 402 359.875 402 234 c 0
 402 140 353 28 277 28 c 0
 180.979 28 120 126.871 120 234 c 0
 120 310 168 422 246 422 c 0
262 458 m 8
 130.049 458 28.7402 356.563 28.7402 224.74 c 0
 28.7402 82 132.32 -7 265 -7 c 0
 392 -7 493.12 96 493.12 217.25 c 0
 493.12 360 393.61 458 262 458 c 8
EndSplineSet
EndChar
StartChar: p
Encoding: 112 112 32767
Width: 532
Flags: W
HStem: 406 48.3<250 296.4>
VStem: 73.8008 89.5002<-227 -86.6995 -216 245> 405.5 88.5<233 265>
Fore
250 406 m 12
 218.328 406 175 392 173.9 377.649 c 4
 171.303 343.744 159 209 167.5 132.3 c 12
 173.904 74.5107 217.821 40.488 283.7 38.8994 c 4
 321 38 354 52 373 74 c 4
 401.67 107.197 405.5 169.75 405.5 233.8 c 4
 405.5 345.811 320 406 250 406 c 12
29.7002 419.649 m 20
 57 440.649 98.0996 447 138 468 c 12
 145.938 472.178 153.844 473.409 161 468 c 28
 177.994 455.154 173 436 175.9 415.449 c 12
 177.922 401.123 199.059 417.529 212 424 c 20
 240 438 261.999 454.376 296.4 454.3 c 4
 432 454 494 346.025 494 265 c 4
 494 162 462.566 109.275 422 74 c 4
 376 34 342 8 282.7 6.2998 c 4
 231.992 4.84595 209 20 181 19 c 4
 162.983 18.3564 168.451 -5.23145 167.601 -22.0508 c 20
 163 -113 163.301 -121.95 163.301 -224.851 c 12
 163.301 -258.083 195.601 -275.25 222.9 -285.75 c 12
 232.838 -289.572 233.548 -313.051 222.9 -313.051 c 20
 138.9 -313.051 92.7002 -317.25 23.4004 -315.15 c 12
 11.6797 -314.795 7.20703 -292.045 17.1006 -285.75 c 20
 40.2002 -271.051 73.459 -251.369 73.8008 -216.45 c 20
 75.9004 -2.25 80 118 78 343 c 12
 77.7393 372.279 54 382 27.6006 398.649 c 12
 20.6387 403.04 23.1758 414.631 29.7002 419.649 c 20
EndSplineSet
EndChar
StartChar: q
Encoding: 113 113 32767
Width: 570
Flags: W
HStem: -11 35<218 276>
VStem: 38 86<204 223>
Fore
262 427 m 20
 312 427 344 405 366 376 c 4
 367.754 373.688 402.757 337.673 404 324 c 4
 407 291 398 139.483 398 58 c 5
 379 34 304.992 23.3408 276 24 c 4
 188 26 123.147 118.414 124 213 c 20
 125 324 162.691 427 262 427 c 20
274 464 m 4
 134.096 458.818 39 346 38 206 c 4
 37.0283 70.0039 125.008 -9.77637 218 -11 c 4
 294 -12 359 5 382 16 c 4
 390.231 19.9365 390.202 -2.93164 390 -10 c 4
 388 -80 394 -146 386 -228 c 4
 383.35 -255.166 359.849 -281.025 318 -288 c 4
 306 -290 314.007 -317.722 320 -318 c 4
 366.699 -320.172 416.002 -312.647 446 -313 c 4
 471.245 -313.296 498.984 -323.828 536 -322 c 4
 544.053 -321.603 534 -291 526 -290 c 4
 515.244 -288.655 473.083 -275.603 472 -246 c 4
 466 -82 478 399 484 440 c 4
 484.938 446.411 477.501 449.115 472 447 c 4
 459 442 449 445 440 432 c 4
 436.355 426.735 415.21 430.679 406 434 c 4
 372.731 445.996 328 466 274 464 c 4
EndSplineSet
EndChar
StartChar: r
Encoding: 114 114 32767
Width: 374
Flags: W
HStem: 360 83<301 317>
VStem: 93.1432 81.8568<174 286 303.008 321.78>
Fore
157 451 m 0
 120.14 439.941 91 430 60 411 c 0
 56.542 408.881 53.4033 397.547 59 393 c 16
 75 380 91 376 91 348 c 4
 91 241.925 97 172 89 72 c 4
 87.2295 49.8672 62 23 38 21 c 0
 28.1852 20.1821 25.7959 -2 36.7959 -2 c 0
 49.834 -2 77.9883 -1.26367 123 0 c 0
 145.542 0.632812 224.789 0 232 0 c 0
 242 0 243 20 230 25 c 0
 208.696 33.1938 180.336 40.6064 179 67 c 16
 175 146 172 235 175 303 c 0
 175.274 309.215 173.141 316.496 177 324 c 16
 195 359 219 371 251 371 c 8
 275.794 371 285.01 360 312 360 c 0
 323 360 339 358 350 373 c 0
 359.386 385.799 359 383 359 405 c 0
 359 433 341 443 306 443 c 0
 286 443 240 421 219 408 c 0
 214.042 404.931 194 390 190 394 c 0
 180.944 403.056 173.876 415.522 173 435 c 0
 172.348 449.507 167 454 157 451 c 0
EndSplineSet
EndChar
StartChar: s
Encoding: 115 115 32767
Width: 366
Flags: W
HStem: -5.00241 36.0024<155 166> 431.739 28.8614<207.344 219.258>
Fore
201.55 460.497 m 8
 130.333 458.961 63.9385 411.613 66 345 c 0
 68.2998 270.709 100.682 246.543 152 212 c 0
 217.7 167.777 242 192.048 242 97 c 0
 242 83.001 202 31 156 31 c 0
 135.604 31 112 34 96.8994 46.1621 c 0
 85.1787 55.6016 72 89 57.5 111.989 c 8
 53.3926 118.502 37.2578 119.66 38.25 111.989 c 0
 42 83 39.4004 70.3125 44 43 c 0
 44.9365 37.4395 71.1875 21.5547 78 19 c 0
 126 1 139.222 -6.75098 182 -6 c 16
 296 -4 325.3 81.6523 323 133 c 0
 320.146 196.733 272.16 232.203 229 264 c 0
 172.649 305.515 145.004 295.366 142 361 c 0
 140.85 386.127 164.75 430.647 207.3 431.739 c 4
 262.231 433.15 281.872 355.468 296 359 c 0
 304 361 310 351 316 371 c 0
 318.109 378.031 316 437 308 443 c 0
 300.588 448.559 279.88 447.508 272 451 c 0
 254.75 458.647 237.095 461.264 201.55 460.497 c 8
EndSplineSet
EndChar
StartChar: t
Encoding: 116 116 32767
Width: 362
Flags: W
HStem: 399.999 48.0006<189 274>
VStem: 95.2241 73.2339<108 376>
Fore
138.958 517 m 4
 128.958 499 121.795 476.312 106.458 461 c 4
 85.6025 440.179 70.1768 424.302 49.458 413 c 4
 43.958 410 43.458 401.5 48.458 398 c 4
 55.5049 393.066 71.958 393.5 85.458 393 c 12
 91.1396 392.79 94.6191 387.683 94.458 382 c 20
 91.458 276.5 95.458 177.017 95.458 54 c 0
 95.458 33 136.608 -4 176.458 -4 c 16
 246.458 -4 292.997 -0.56543 328.458 54 c 16
 335.083 64.1943 328.421 72.8457 319.458 67 c 0
 296.458 52 258 56 239.458 59 c 0
 200.946 65.231 168.458 76 168.458 114 c 0
 168.458 151.896 170 292 170 374 c 12
 170 386.417 174.541 400 186.958 400 c 20
 236 400 295.458 399 312.458 400 c 4
 316.713 400.25 321.248 403.023 321.458 407 c 4
 322.458 426 324.037 423.865 318.458 442 c 4
 316.458 448.5 307.958 451 302.458 450 c 4
 286.441 447.088 220.458 446 188.458 448 c 4
 181.121 448.459 170.958 451 170.458 460 c 4
 170.12 466.081 166.896 470.159 167.958 477.5 c 4
 169.708 489.61 169.217 503.373 169.958 513 c 4
 170.458 519.5 163.963 526.595 155.458 527 c 4
 144.958 527.5 141.134 520.916 138.958 517 c 4
EndSplineSet
EndChar
StartChar: u
Encoding: 117 117 32767
Width: 570
Flags: W
HStem: -7.998 61.998<204 256>
VStem: 75.6347 81.7809<139.378 236.977> 372.292 83.0634<148.075 365.859> 374 84.4326<300.63 368>
Fore
165.5 440.4 m 0
 165.789 444.838 158.853 452.933 154.5 453.31 c 0
 131.257 455.317 117.5 451.7 96 448 c 0
 73.3525 444.103 54 446 36 436 c 0
 32.3375 433.965 22 422 34 412 c 0
 42.2468 405.128 54.0127 404.396 60 402 c 0
 71 397.601 80 396 80 376 c 0
 80 251.936 70 178 80 104 c 0
 86.7778 53.8443 137.163 -8 204 -8 c 16
 275.5 -8 337.8 22.6006 362 60 c 0
 365.827 65.9141 368.9 59 370 48 c 0
 372.097 27.0293 372 29.1914 372 18 c 0
 372 12.5 377.228 -4.65039 391.8 -1.7998 c 0
 447 9 519.101 32.2002 540 41 c 0
 551.984 46.0449 549 67 535 65 c 8
 519.318 62.7598 503.36 58.5137 496.099 57.5869 c 0
 484.74 56.1367 474.582 59.042 467.2 57.7002 c 8
 456.604 55.7744 455.511 71.1318 455.4 81.9004 c 16
 454 218 458.7 323 459.8 418.7 c 0
 459.866 424.354 457.075 433.018 458.016 445.099 c 0
 458.7 453.9 454.61 455.277 451 455 c 0
 436.7 453.9 419.6 452.5 403.1 451.4 c 0
 374.54 449.497 346 448 308.7 444.8 c 0
 292.018 443.369 296 424 308.7 422 c 0
 328.736 418.845 338.487 420.321 352.5 408.5 c 24
 367.062 396.216 374 376.519 374 366 c 0
 374 260 372.894 95.334 365.7 96.1006 c 1
 333.8 69.7002 297.668 54 256 54 c 0
 223 54 159.728 78.1709 158 130 c 0
 155.801 196 160 355.7 165.5 440.4 c 0
EndSplineSet
EndChar
StartChar: v
Encoding: 118 118 32767
Width: 505
Flags: HMW
Fore
318 442 m 0
 309.949 442.424 309.198 411.793 322 408 c 16
 349 400 356.256 377.919 352 365 c 0
 324 280 298 205 282 175 c 0
 280.318 171.847 256.15 159.675 250 173 c 0
 232 212 202.032 295.425 174 362 c 0
 166 381 170 398 204 402 c 0
 212.883 403.045 223 443 205 443 c 0
 170.251 443 146.562 439.299 117.999 439.63 c 0
 86 440 55.876 442 25 442 c 0
 12 442 7.26313 410.887 28 402 c 0
 42 396 86.9424 384.404 96 362 c 0
 134 268 192 104 234 0 c 8
 237.388 -8.3877 253.668 -5.41016 257 3 c 16
 299 109 365 279 404 372 c 0
 412.131 391.388 446 404 466 408 c 0
 477.849 410.37 477 442 462 442 c 0
 436 442 422.359 440 398 440 c 0
 370 440 356 440 318 442 c 0
EndSplineSet
EndChar
StartChar: w
Encoding: 119 119 32767
Width: 804
Flags: HMW
Fore
362.521 327 m 16
 342 278 316 218 290 152 c 0
 284.417 137.828 256.403 139.789 251 156 c 0
 225 234 203 296 181 361 c 8
 176.633 373.903 176.76 389.021 189 395 c 16
 205.378 403 210.622 409 232.622 409 c 8
 243.959 409 245.959 438 234.622 438 c 16
 189 438 76.6221 438 24.6221 440 c 8
 11.3398 440.511 14.1045 409.224 27 406 c 16
 43 402 57.8517 398.378 73 386 c 24
 80.373 379.976 83.5732 374.883 87 366 c 16
 141 226 169 154 227 0 c 8
 230.01 -7.99219 236.09 -12.6191 244.622 -13 c 24
 254.37 -13.4355 262.129 -8.95703 266 0 c 16
 317 118 333 154 373 258 c 0
 381.403 279.849 403.877 272.344 409 258 c 0
 439 174 461.622 107 502.622 7 c 8
 506.113 -1.5166 512.422 -7.27722 521.622 -7 c 24
 531.967 -6.68848 537.693 0.588867 542 10 c 16
 596 128 630.622 221 688.622 359 c 8
 696.209 377.052 706.501 385.496 723.622 395 c 24
 739.674 403.911 743.622 407 769.622 405 c 8
 782.935 403.976 786.967 439.417 773.622 439 c 16
 709.622 437 647.622 438 592.622 443 c 8
 582.494 443.921 584.959 420.171 594.622 417 c 16
 619 409 630.125 414.909 641.622 399 c 24
 651.455 385.393 649.131 371.858 643.622 356 c 16
 620 288 597 220 563 142 c 8
 557.381 129.109 535 126 527 144 c 0
 493.011 220.477 480.622 252 450.622 350 c 8
 444.974 368.451 444.706 390.834 462.622 398 c 16
 482.622 406 491.062 409 505.622 409 c 0
 519 409 521.425 439.167 509.622 439 c 16
 439 438 365 438 303.622 440 c 8
 293.487 440.33 294.355 418.118 303.622 414 c 16
 321.622 406 337.37 404.818 355 392 c 16
 367.378 383 367.366 374.17 370 361 c 16
 373 346 367.767 339.523 362.521 327 c 16
EndSplineSet
MinimumDistance: x2,-1 
EndChar
StartChar: x
Encoding: 120 120 32767
Width: 515
Flags: W
VStem: 20.0257 180.343<8 14> 287.15 202.805<8 14> 295.906 187.416<424 431>
Fore
44 446 m 8
 30.6006 445.33 25.2725 417.242 38 413 c 16
 62 405 66.5234 392.967 83.2646 377 c 24
 142.902 320.121 122 337 219 222 c 8
 222.868 217.414 222.986 211.484 219 207 c 16
 171 153 155.265 120 104.265 61 c 8
 81.335 34.4736 59.2646 31 26.2646 21 c 8
 17.4512 18.3291 18.0742 -2.57422 27.2646 -2 c 16
 91.2646 2 145 -1 194 0 c 8
 202.413 0.171875 202.267 16.332 195.265 21 c 16
 183.265 29 155.802 27.4756 156.265 46 c 16
 157.265 86 207 137 239 183 c 8
 242.96 188.692 250.428 181.969 255.265 177 c 16
 288.99 142.363 304.265 123 332.265 76 c 0
 332.265 76 340 59 333 46 c 8
 325.112 31.3516 316 35 296 27 c 8
 285.945 22.9775 283.175 -0.30957 294 0 c 16
 364 2 422 0 481 0 c 0
 495 0 490.806 21.0674 482 28 c 16
 462.317 43.4951 457.823 33.1807 431.265 61 c 0
 394.404 99.6104 332.009 187.109 289 240 c 8
 282.396 248.122 285.562 257.744 292 266 c 16
 338 325 346 327 396 380 c 8
 420.582 406.057 447 399 478 416 c 8
 485.724 420.236 484.457 431.085 479 438 c 24
 467.142 453.026 451.142 447 432 447 c 16
 383 447 341 443 306 446 c 8
 293.588 447.063 291.067 418.58 303 415 c 16
 323 409 335.034 408.17 334 393 c 16
 331 349 313 341 275 288 c 8
 271.011 282.436 262.242 280.626 258 286 c 16
 228 324 220.265 324 190.265 376 c 0
 184.389 386.186 181.723 404.892 193 411 c 0
 206.204 418.152 217.498 417.45 218 430 c 24
 218.408 440.189 209.193 446.677 199 447 c 16
 136 449 104 449 44 446 c 8
EndSplineSet
EndChar
StartChar: y
Encoding: 121 121 32767
Width: 485
Flags: W
Fore
56.0566 444 m 8
 39.9707 444 33.7871 414.469 46 404 c 16
 60 392 63.7979 376.649 74 358 c 0
 138 241 182 110 221 30 c 0
 221 30 224.076 17.3506 222 10 c 0
 205.057 -50 176.525 -155.008 152 -220 c 0
 141.057 -249 109.667 -225.768 82.9434 -230 c 0
 64 -233 46 -246.718 46 -276 c 0
 46 -300 73 -320 97.9434 -320 c 8
 129.396 -320 150.538 -300.29 162 -271 c 16
 243 -64 313.943 172 391.943 358 c 0
 399.24 375.4 397.053 392.015 432 402 c 0
 446 406 450 438 432 438 c 0
 385.957 438 356 438 326 436 c 0
 315.824 435.321 310.09 406.708 325 402 c 0
 344 396 330 395 340 388 c 0
 345.964 383.825 349.532 364.146 346 352 c 0
 321 266 300.558 198.634 278 146 c 0
 272 132 258.203 134.425 254 144 c 0
 236 185 194 278 158.943 361 c 0
 155.41 369.365 160.841 391.633 167.943 394 c 0
 182.943 399 186 442 166 442 c 8
 123.115 442 102.113 444 56.0566 444 c 8
EndSplineSet
EndChar
StartChar: z
Encoding: 122 122 32767
Width: 483
Flags: W
HStem: -3.51919 31.8271<244 308> 356.017 94.9831<70 86> 410 30<121 270 270.016 279.091>
Fore
86 451 m 16
 100 451 106.942 440 122 440 c 16
 241.7 440 293.101 440 396 440 c 8
 403.365 440 414.232 434.628 410.301 428.399 c 16
 304.25 260.399 249.8 186.3 170 54 c 8
 164.612 45.0684 173.6 32.7998 184 32 c 16
 262 26 310 26 330 32 c 0
 370.492 44.1476 395.851 59.7907 416 88 c 0
 426 102 446.085 95.1201 444 84 c 16
 438 52 436 40 428 16 c 8
 424.745 6.2361 420 0 408 -0.188347 c 4
 339.015 -1.2711 237.814 -7.25584 158 0 c 8
 118.953 3.5498 82.0498 -0.950195 60 -2 c 8
 50.2783 -2.46289 50.4453 14.0078 56 22 c 16
 158.899 170.051 213.465 245.109 286 366 c 0
 304 396 288.716 410.668 270 410 c 16
 211.2 407.9 210 410 134 410 c 8
 111.345 410 101.45 404.55 92 372 c 8
 88.9658 361.551 80.5 356 70 356 c 8
 56.5898 356 56 378 60 388 c 0
 68 408 62 406 68 436 c 8
 69.8379 445.19 76.6279 451 86 451 c 16
EndSplineSet
EndChar
StartChar: fi
Encoding: 174 64257 32767
Width: 548
Flags: W
HStem: 740 44<317 356>
Fore
36.6426 437.043 m 16
 59.4131 448.428 63.9424 438.604 74.6426 450.043 c 16
 81.2139 457.067 88.7717 474.01 88.6426 483.043 c 0
 88 528 88.2689 540.512 93.7773 567.728 c 0
 108 638 134.627 676.324 189 721 c 24
 242.783 765.192 262 784 356 784 c 0
 406 784 416.494 780.703 446 763 c 0
 466 751 480 732 482 714 c 8
 484.973 687.243 462 671 428 671 c 0
 408 671 392 682 386 692 c 0
 372.584 714.361 352 740 318 740 c 0
 256 740 248 730 232 721 c 0
 218.055 713.156 176.04 657.642 171.053 624.652 c 0
 164 578 166 554 168 482 c 8
 168.438 466.212 181.148 450.791 190 448 c 0
 200.166 444.794 359.25 451.582 368 450 c 0
 376.087 448.538 425 459 448 460 c 0
 456.055 460.35 460.369 459.134 460 444 c 0
 458 362 454.096 98.5646 462 98 c 0
 468.607 97.5283 468.276 56.71 476 56 c 8
 500.315 53.7646 514.15 -2.02993 504 0 c 0
 454 10 401.52 0 336 0 c 16
 322 0 318 36 334 42 c 0
 349.442 47.7909 376 66 376 100 c 0
 376 170 380 286 376 360 c 0
 375.082 376.975 359 397 332 398 c 0
 279.352 399.95 234 399 184 396 c 8
 163.896 394.794 158.125 371.552 157.947 351.412 c 16
 156.912 234.457 155.79 219.235 162 94 c 8
 162.746 78.9541 165.853 69.1345 176 58 c 24
 188.923 43.8193 198.891 43.916 220 36 c 0
 236 30 230.882 -9.44043 216 -8 c 0
 156.778 -2.26758 112 -2 26.502 -5.73242 c 8
 12.416 -6.34766 18.624 25.541 32 30 c 16
 53.7344 37.2451 60.1988 34.0404 72 46 c 24
 79.6309 53.7334 82 61.1357 82 72 c 16
 82 199.306 84 272.08 84 388 c 8
 84 395.209 82.9072 403.973 75.7197 404.525 c 16
 62.2646 405.561 52.6426 407.043 36.3896 409.596 c 8
 25.8145 411.257 27.0674 432.256 36.6426 437.043 c 16
EndSplineSet
LCarets: 0 255 '    ' 1 0 
Ligature: 8 0 'liga' f i
EndChar
